<svg width="104" height="90" viewBox="0 0 104 90" fill="none" xmlns="http://www.w3.org/2000/svg">
<ellipse cx="51.5" cy="45" rx="51.5" ry="45" fill="#0E0000"/>
<path d="M21.282 18.8211C23.8643 6.77396 36.7761 -2.51363 48.3967 8.89942C62.9224 23.1657 58.5647 76.3619 71.6378 78.7396C84.711 81.1173 98.7525 62.9819 100.205 53.4711" stroke="white" stroke-width="6"/>
<path d="M19.7029 35.4858H52.9829L53.6229 48.1578H52.4709C50.6789 43.8484 48.8016 40.9044 46.8389 39.3258C44.8762 37.7044 41.9962 36.8938 38.1989 36.8938H35.9589V56.6698H38.1349C40.1402 56.6698 41.8256 55.9231 43.1909 54.4298C44.5562 52.8938 45.5162 50.8458 46.0709 48.2858H47.0309V67.2298H45.9429C45.1749 64.0298 44.1296 61.7471 42.8069 60.3818C41.5269 59.0164 39.7562 58.3338 37.4949 58.3338H35.9589V78.8778H38.3909C42.3162 78.8778 45.6442 77.7044 48.3749 75.3578C51.1482 73.0111 53.0469 70.0031 54.0709 66.3338H55.3509L54.8389 80.2858H19.7029V78.8778H23.4789V36.8938H19.7029V35.4858Z" fill="white"/>
</svg>
