<svg width="293" height="74" viewBox="0 0 293 74" fill="none" xmlns="http://www.w3.org/2000/svg">
<path d="M2.344 27.6269H35.624L36.264 40.2989H35.112C33.32 35.9895 31.4427 33.0455 29.48 31.4669C27.5173 29.8455 24.6373 29.0349 20.84 29.0349H18.6V48.8109H20.776C22.7813 48.8109 24.4667 48.0642 25.832 46.5709C27.1973 45.0349 28.1573 42.9869 28.712 40.4269H29.672V59.3709H28.584C27.816 56.1709 26.7707 53.8882 25.448 52.5229C24.168 51.1575 22.3973 50.4749 20.136 50.4749H18.6V71.0189H21.032C24.9573 71.0189 28.2853 69.8455 31.016 67.4989C33.7893 65.1522 35.688 62.1442 36.712 58.4749H37.992L37.48 72.4269H2.344V71.0189H6.12V29.0349H2.344V27.6269ZM42.2815 27.6269H65.3215V29.0349H58.5375V71.0189H60.8415C64.4682 71.0189 67.3482 69.9095 69.4815 67.6909C71.6575 65.4722 73.8548 62.0589 76.0735 57.4509H77.4175L76.2015 72.4269H42.2815V71.0189H46.0575V29.0349H42.2815V27.6269ZM80.4065 27.6269H113.687L114.326 40.2989H113.175C111.383 35.9895 109.505 33.0455 107.543 31.4669C105.58 29.8455 102.7 29.0349 98.9025 29.0349H96.6625V48.8109H98.8385C100.844 48.8109 102.529 48.0642 103.895 46.5709C105.26 45.0349 106.22 42.9869 106.775 40.4269H107.735V59.3709H106.647C105.879 56.1709 104.833 53.8882 103.511 52.5229C102.231 51.1575 100.46 50.4749 98.1985 50.4749H96.6625V71.0189H99.0945C103.02 71.0189 106.348 69.8455 109.079 67.4989C111.852 65.1522 113.751 62.1442 114.775 58.4749H116.055L115.543 72.4269H80.4065V71.0189H84.1825V29.0349H80.4065V27.6269ZM142.335 71.7869C144.426 71.7869 145.748 71.4029 146.303 70.6349C146.9 69.8669 147.199 68.5655 147.199 66.7309V54.3149H143.103V52.9069H161.535V54.3149H159.039V72.3629H158.079C157.311 71.2962 156.223 70.7629 154.815 70.7629C154.218 70.7629 152.426 71.1469 149.439 71.9149C146.495 72.6829 143.978 73.0669 141.887 73.0669C134.932 73.0669 129.535 71.1895 125.695 67.4349C121.898 63.6802 119.999 58.0482 119.999 50.5389C119.999 42.9869 121.983 37.1629 125.951 33.0669C129.962 28.9709 135.338 26.9229 142.079 26.9229C144.682 26.9229 147.284 27.2642 149.887 27.9469C152.532 28.5869 154.068 28.9069 154.495 28.9069C154.922 28.9069 155.242 28.8215 155.455 28.6509C155.668 28.4375 155.903 28.0962 156.159 27.6269H156.863L157.375 41.5149H156.223C154.132 37.3762 152.02 34.1335 149.887 31.7869C147.796 29.3975 145.45 28.2029 142.847 28.2029C136.319 28.2029 133.055 34.5815 133.055 47.3389V52.3949C133.055 58.7949 133.844 63.6375 135.423 66.9229C137.044 70.1655 139.348 71.7869 142.335 71.7869ZM189.336 71.2109L184.664 57.3869H171.992L167.064 71.2109H171.864V72.4269H162.072V71.2109H165.08L181.4 27.2429H186.648L202.776 71.2109H205.72V72.4269H184.792V71.2109H189.336ZM178.583 39.2109L172.568 55.9789H184.152L178.583 39.2109ZM243.885 28.8429V72.4269H234.925L212.973 31.0189V71.2109H216.493V72.4269H207.725V71.2109H211.245V28.8429H207.725V27.6269H225.389L242.157 59.7549V28.8429H238.637V27.6269H247.405V28.8429H243.885ZM289.704 27.6269L290.344 43.6909H289.128C287.251 38.0162 285.587 34.1549 284.136 32.1069C282.685 30.0162 280.595 28.9709 277.864 28.9709H277.096V71.0829H282.536V72.4269H259.176V71.0829H264.616V28.9709H263.784C261.053 28.9709 258.941 30.0589 257.448 32.2349C255.955 34.3682 254.312 38.1869 252.52 43.6909H251.304L251.944 27.6269H289.704Z" fill="white"/>
<path d="M1 14.608C27.3884 7.74875 86.8596 -3.70762 113.638 5.34119C147.11 16.6522 156.142 22.3758 193.334 14.608C230.526 6.84023 266.655 3.70586 281 8.06673" stroke="white" stroke-width="3"/>
</svg>
